<svg width="132" height="73" viewBox="0 0 132 73" fill="none" xmlns="http://www.w3.org/2000/svg">
<path d="M11.0988 42.4201V29.2501L8.50881 31.8401H35.1288C36.0088 31.8401 36.9488 31.3601 37.3688 30.5601C41.6588 22.2701 45.9488 13.9801 50.2388 5.69013L46.6988 6.62012C58.2688 12.9901 69.8388 19.3701 81.4088 25.7401C93.6788 32.5001 105.839 39.5801 118.269 46.0501C118.769 46.3101 117.889 45.4401 118.379 46.1501C118.869 46.8601 118.599 46.3301 118.879 46.7501C119.259 47.3301 119.599 47.9301 119.899 48.5501C122.759 54.5601 123.039 61.9401 123.249 68.4501L125.839 65.8601C113.189 66.0201 100.549 66.1801 87.8988 66.3301C67.1488 66.5901 46.4088 66.8501 25.6588 67.1101C20.3288 67.1801 14.9888 67.2301 9.65881 67.3101C8.25881 67.3301 7.18881 67.5801 6.08881 66.4501C4.48881 64.8101 5.01881 61.2901 7.14881 60.4101C8.01881 60.0501 8.14881 60.1301 8.99881 60.1301C24.0688 60.1201 39.1388 60.1301 54.2088 60.1301C70.8988 60.1301 87.6188 60.4401 104.309 60.1301C104.609 60.1301 104.919 60.1301 105.219 60.1301C108.549 60.1301 108.559 54.9501 105.219 54.9501H60.1588C43.2388 54.9501 26.3288 54.8801 9.40881 54.9501C6.77881 54.9601 4.18881 55.5701 2.29881 57.5501C-2.05119 62.1301 0.0588098 70.6101 6.21881 72.2001C9.60881 73.0701 13.7688 72.4301 17.1988 72.3901C37.2588 72.1401 57.3188 71.8901 77.3788 71.6401C93.2488 71.4401 109.169 71.5901 125.039 71.0401C125.309 71.0401 125.579 71.0401 125.849 71.0301C127.219 71.0101 128.489 69.8601 128.439 68.4401C128.229 61.8101 127.779 54.7901 125.469 48.5001C124.649 46.2701 123.589 43.7901 121.749 42.1901C119.179 39.9401 115.439 38.5601 112.479 36.9301C96.0788 27.8901 79.6788 18.8601 63.2788 9.82007C58.6288 7.26007 53.9788 4.70013 49.3288 2.13013C48.1488 1.48013 46.4388 1.79012 45.7888 3.06012C41.4988 11.3501 37.2088 19.6401 32.9188 27.9301L35.1588 26.6501H8.50881C7.10881 26.6501 5.91881 27.8401 5.91881 29.2401V42.4101C5.91881 45.7401 11.0988 45.7501 11.0988 42.4101V42.4201Z" fill="#C92D7F"/>
<path d="M14.6088 40.6201V27.4501L12.0188 30.0401H38.6388C39.5188 30.0401 40.4588 29.5601 40.8788 28.7601C45.1688 20.4701 49.4588 12.1801 53.7488 3.89008L50.2088 4.82007C61.7788 11.1901 73.3488 17.5701 84.9188 23.9401C97.1888 30.7001 109.349 37.7801 121.779 44.2501C122.279 44.5101 121.399 43.6401 121.889 44.3501C122.379 45.0601 122.109 44.5301 122.389 44.9501C122.769 45.5301 123.109 46.1301 123.409 46.7501C126.269 52.7601 126.549 60.1401 126.759 66.6501L129.349 64.0601C116.699 64.2201 104.059 64.3801 91.4088 64.5301C70.6588 64.7901 49.9188 65.0501 29.1688 65.3101C23.8388 65.3801 18.4988 65.4301 13.1688 65.5101C11.7688 65.5301 10.6988 65.7801 9.59882 64.6501C7.99882 63.0101 8.52882 59.4901 10.6588 58.6101C11.5288 58.2501 11.6588 58.3301 12.5088 58.3301C27.5788 58.3201 42.6488 58.3301 57.7188 58.3301C74.4088 58.3301 91.1288 58.6401 107.819 58.3301C108.119 58.3301 108.429 58.3301 108.729 58.3301C112.059 58.3301 112.069 53.1501 108.729 53.1501H63.6688C46.7488 53.1501 29.8388 53.0801 12.9188 53.1501C10.2888 53.1601 7.69882 53.7701 5.80882 55.7501C1.45882 60.3301 3.56882 68.8101 9.72882 70.4001C13.1188 71.2701 17.2788 70.6301 20.7088 70.5901C40.7688 70.3401 60.8288 70.0901 80.8888 69.8401C96.7588 69.6401 112.679 69.7901 128.549 69.2401C128.819 69.2401 129.089 69.2401 129.359 69.2301C130.729 69.2101 131.999 68.0601 131.949 66.6401C131.739 60.0101 131.289 52.9901 128.979 46.7001C128.159 44.4701 127.099 41.9901 125.259 40.3901C122.689 38.1401 118.949 36.7601 115.989 35.1301C99.5888 26.0901 83.1888 17.0601 66.7888 8.02008C62.1388 5.46008 57.4888 2.90008 52.8388 0.33008C51.6588 -0.31992 49.9488 -0.00992727 49.2988 1.26007C45.0088 9.55007 40.7188 17.8401 36.4288 26.1301L38.6688 24.8501H12.0188C10.6188 24.8501 9.42882 26.0401 9.42882 27.4401V40.6101C9.42882 43.9401 14.6088 43.9501 14.6088 40.6101V40.6201Z" fill="#1C223A"/>
<path d="M72.8688 28.08C76.2488 23.14 79.6288 18.2 83.0088 13.26C84.8988 10.5 80.4088 7.91006 78.5388 10.6501C75.1588 15.5901 71.7788 20.5301 68.3988 25.4701C66.5088 28.2301 70.9988 30.82 72.8688 28.08Z" fill="#C92D7F"/>
<path d="M91.7888 38.4201C95.1688 33.4801 98.5488 28.5401 101.929 23.6001C103.819 20.8401 99.3288 18.2501 97.4588 20.9901C94.0788 25.9301 90.6988 30.8701 87.3188 35.8101C85.4288 38.5701 89.9188 41.1601 91.7888 38.4201Z" fill="#C92D7F"/>
<path d="M91.7888 38.3701C93.2288 36.2601 94.6688 34.1601 96.1088 32.0501C96.8988 30.8901 96.3288 29.1801 95.1788 28.5101C93.8988 27.7601 92.4288 28.2801 91.6388 29.4401C90.1988 31.5501 88.7588 33.6501 87.3188 35.7601C86.5288 36.9201 87.0988 38.6301 88.2488 39.3001C89.5288 40.0501 90.9988 39.5301 91.7888 38.3701Z" fill="#1C223A"/>
<path d="M72.8688 28.0801C74.3388 25.9301 75.8188 23.7701 77.2888 21.6201C78.0788 20.4601 77.5088 18.7501 76.3588 18.0801C75.0788 17.3301 73.6088 17.85 72.8188 19.01C71.3488 21.16 69.8688 23.3201 68.3988 25.4701C67.6088 26.6301 68.1788 28.34 69.3288 29.01C70.6088 29.76 72.0788 29.2401 72.8688 28.0801Z" fill="#1C223A"/>
</svg>
